<mxfile host="app.diagrams.net" modified="2020-05-13T15:28:58.959Z" agent="5.0 (Windows NT 10.0; Win64; x64) AppleWebKit/537.36 (KHTML, like Gecko) Chrome/81.0.4044.138 Safari/537.36" etag="LtSHfwbSBjBPOT3mbTOd" version="13.1.0" type="github">
  <diagram id="zIrL0FKHCmchdUDjgVS4" name="Page-1">
    <mxGraphModel dx="1165" dy="537" grid="1" gridSize="10" guides="1" tooltips="1" connect="1" arrows="1" fold="1" page="1" pageScale="1" pageWidth="827" pageHeight="1169" math="0" shadow="0">
      <root>
        <mxCell id="0" />
        <mxCell id="1" parent="0" />
        <mxCell id="VZ6cViBTndNghCEebXyb-1" value="&lt;b style=&quot;font-size: 32px;&quot;&gt;Design&lt;/b&gt;" style="rounded=1;whiteSpace=wrap;html=1;verticalAlign=top;strokeWidth=1;strokeColor=#020912;dashed=1;fontSize=32;" vertex="1" parent="1">
          <mxGeometry x="234" y="30" width="360" height="395" as="geometry" />
        </mxCell>
        <mxCell id="VZ6cViBTndNghCEebXyb-2" value="&lt;b style=&quot;font-size: 20px;&quot;&gt;2020 Fusion&lt;/b&gt;" style="rounded=1;whiteSpace=wrap;html=1;verticalAlign=top;strokeWidth=3;strokeColor=#020912;fontSize=20;" vertex="1" parent="1">
          <mxGeometry x="274" y="120" width="280" height="285" as="geometry" />
        </mxCell>
        <mxCell id="VZ6cViBTndNghCEebXyb-3" value="" style="shape=image;verticalLabelPosition=bottom;labelBackgroundColor=#ffffff;verticalAlign=top;aspect=fixed;imageAspect=0;image=data:image/png,iVBORw0KGgoAAAANSUhEUgAAAlgAAACSCAYAAACZirQnAAAgAElEQVR4Ae2d29NfVXnHnem/0Hsv2s70Ak8g1NZDioIgKHiKBLxxaobq2IrYGZ2CXpQ2Q8WRUUcdkLHC0EEFPEQxWgZJO3WIXEgd0zFvhAAmmBAScz5AEtidb+hK1rveZx33Ou3f/q6Z3+z924e11/rudfjsZz177VcMDFYFTu7ZPJzYtWk4vnTP6d+Rn98wqN+B9VcMvt/hjdedOf745jtOx4H4EC8DFaACVIAKUAEqsLgKvGJxsxaXM0APQOroo+uGQw+u9cKTD65C9uM6uB6ui+u/dOJIXKJ5NBWgAlSAClABKtClArMFLAVUsEiFwFCtY2D1grWLVq4u6wsTRQWoABWgAlQgSIFZARaG54499sXh4IY1XUGVDd6QTli4Xtj+EK1bQcWZB1EBKkAFqAAV6EOBhQcsWIKmBFUu2EI+AIkMVIAKUAEqQAWoQN8KLCRgwZfp+W3rq/lS2aCo1Hb4bsFviz5bfVcupo4KUAEqQAXmq8BCAdaLR3ef9l+ayhBgDgCDVQv5ZqACVIAKUAEqQAX6UWAhAAuAAdDIASxTjYOg1U+lYkqoABWgAlSACkwasDBENnewMoGQoMVKTQWoABWgAlSgvQKTBCyAFXyQ5jQUaIKU7z99tNpXLqaAClABKkAF5qvA5AALb9HVmgjUBzG97weAYooHBipABagAFaACVKCuApMBLFitMCdU71DTY/owmSod4etWLF6NClABKkAF5q3AJAALVisOB/q/feiCO+iHqSsYqAAVoAJUgApQgfIKdA1YtFqNgyoJuGDNgq4MVIAKUAEqQAWoQDkFugWsUweepK/V+vyABeiCNYvfOixXqRgzFaACVIAKUIEuAQuO2ZL1hdvyAhfeNGSgAlSAClABKkAF8ivQHWBxXqu8EOWDUrw4wCHD/BWLMVIBKkAFqMC8FegGsNDJwz/IBwTcnx/ADm+8jpA173aAuacCVIAKUIHMCnQBWIArdPKEp/zwFKop/LLg98ZABagAFaACVIAKjFegOWChU+cUDO3ASgcwQtb4CsUYqAAVoAJUgApAgaaARbjqA6wIWWwMqAAVoAJUgArkVaAZYM0Zrp677R3Dnvvf0e2QKC1ZeSsZY6MCVIAKUIH5KdAEsOYMV7AW/f4zFw9LN72ekDW/+sYcUwEqQAWowEwUqA5YcGifu8/VzusvHbZcf+6wdPtfELJmUtGYTSpABagAFZiXAlUBq8XbggfXXz4c/sHFAb+LhsPff6v3d+C7fz1qaG/f99817Pzby4elD712+M1tF0wCsnDfGKgAFaACVIAKUIFwBaoCVot5rgBXpzau9v5ObnjLcOK+Vwb9nr5r1SjI2nnNFcPSla8+DVhTgCzOkxVeoXgkFaACVIAKUAEoUA2wWs3QXgKwAEWpkLX/W1cOAKytq845A1hTgCzM+M5ABagAFaACVIAKhClQBbBafluwFGClQta+299zBrC23Pz6SUEWv10YVql4FBWgAlSAClCB4oCFNwb1eZZqr5cErBTI+sMt7z8LWJ86dxlgTcGSdWLXJtYaKkAFqAAVoAJUwKNAUcCCc/ShB9cuNGDFQtbeGz9wBrCWPva6FYDVO2ThDdAXj+72FCvupgJUgApQASowbwWKAhb8dmpbrMzrlbZgAYhiIGvP3605C1irzzq6q3jUsucpHPCyAgMVoAJUgApQASpgV6AYYGEoyYSdFv9rAVYoZD334avPANbWy14lWrCmAFn0x7JXKu6hAlSAClABKlAEsHqaTLQmYPkga9833jMsAyy8Sfjl8ycLWfCvY6ACVIAKUAEqQAVWKlAEsHoYGlTWstqA5YKsfV957wrA2nLTeU7AQny9DhdyqHBlheIWKkAFqAAVoAJQIDtg9TI0OBaw7vzsm4ZL3n21+FNDeK6lNE/WH9a9fyVgXb/yTUIp3l4h6/lt61mTqAAVoAJUgApQAUOBrIDVw1uDCqzUMtWC9cuvvHoAZEk/CYCkbSZk7fnUB1YA1tK1L38yRzrf3NYjZOGtQn5Kx6hV/EsFqAAVoAKzVyArYMHxWYFNL8tUwHJ9NscEH9d/HbKe+8ialYDleJNQirdHyMIs/QxUgApQASpABajAWQWyAVZPju063LUGLEDSaci6/8rTcGU6uW+9yP0m4VQgi3Njna1UXKMCVIAKUAEqkA2wWn1rUIcpab0HwAIk7fjS22XACniTcAqQRYd3NiZUgApQASpABc4qkAWwYL2Q4KaHbTkAy3R4l4DHt+3Jf3mbFbBC3iSU4u9tuPDkns1nSxbXqAAVoAJUgArMWIEsgNWr9QqAlwOwTId3CXZ8257+7KV2wAp8k1C6Rk+QRSvWjFsSZp0KUAEqQAWWKTAasHq2XuUCLNPhXQId37bff+LdVsCyfZPQF6fa3xNk0Yq1rH7xDxWgAlSACsxUgdGAdXzzHd0OD/YEWM9+dLUdsCLfJFRgpS97gSy+UTjTloTZpgJUgApQgWUKjAKsXt8c1H2/cgwR5rBg4e1B9dt5zRXD1lXnnP15vkmog5RrvRfI4huFy+oY/1ABKkAFqMAMFRgFWJjFW4eZHtdTAct0bNdndXdBjrTvt7e++QxcrZim4f9BSzovZVsPkAWrJgMVoAJUgApQgTkrMAqwDj24dmEBy3Rs12d0jwWfJ26+0AtYW25+vfebhKHXbQ1ZmN2dgQpQASpABajAnBVIBiw4M/dosTLTlGrBMocF9f+hoKOO098gtFmwtnzG/9FnFV/IsjVkvbD9oTnXK+adClABKkAFZq5AMmD1PDWDDlk9ANaOT7/Ta8Ea+yahBF0tIevoo+tmXrWYfSpABagAFZizAsmAhWEgHWR6Xe8BsPQpGmwWrKUPhX/0WYIp27aWkMWPQM+5aWHeqQAVoALzViAJsE7s2jQJuAL05QAs0+HdBjO27buvvcpvwcowVYPt+q0gCy9BMFABKkAFqAAVmKMCSYA1leHBXIBlOrzbQMa2XU3PoJYrpmnAm4QJH322XU/a3gKyOLP7HJsU5pkKUAEqQAWgQBJgTWV4MBdg6Q7uWJcAxrbt8c+vWma9sg0RYl4sWxy5treALA4TsqGhAlSAClCBOSoQDVhTeXtQ+YTlGCKsBVg5p2qwQVltyOLbhHNsVphnKkAFqAAViAas40v3TMb/qgcLljlFg8uCteWmvFM19ABZU/l0ziObNg0P/exnwz+vWzd84pOfXPa74cYbT+/D/t7C87/43IDfkR9cNez/3B9Zf+q4E0v3dZWFqeqOsoDfnXfdtaysmGVHHfc/v/pVV7qHJuaFX33dWqZc5S1m3+Fvvz00ObM+7uhPP7LiXsxakAlkPhqw4FejrENTWKZasEzH9tSZ3GMAq8RUDa0hC5PR9hqOHjs2/OiBB5wdpNlh4v937r132L5jR5NsvXR832mgOnTX+Ssa25hODUAG6GoRpqg70gxY+sKtt0aXF70MAcgQz1QCAaufO0XA6udehKYkGrCmAFV6GlMBy3RsT53J3ZyiwWXBqglYAK9aw4U9fpsQnZze8aWsA7RqhVO7fum1UsUAln7ssf/8xwHgViNMTXeAtM9KlVJ2cA7gHuDWcyBg9XN3CFj93IvQlEQB1tT8rwBaqYBl+l3p/21WIWl7FGAVnKpBSlstyOrJDwsd2tduu200XKlOFRaNvXv3hta36ONe3L+tGFjpkIV1gFapMDXdcU9LgZUqO2oJ0Oo1ELD6uTMErH7uRWhKogBrav5XPQCWmppBX4rTNKw6Z1hqAFg1IKuXjz+jkx87xKM6RX0JH60SQ4Y1OjcTsg7e/mfDyafzfuZoarrDL0y/vzXW4fu3devW0Ha72nFSGURHz1BfAQJWfc3HXjEKsPD5E334bQrrrS1YOlipdRtg1ZiqoYUlq5f5sErAlep80UHmsmRhuM7ntG6CUe7/Of2zpqI7QLCW1UqVG3PZm38WAWtsF5vvfAJWPi1rxRQFWHBYngJU6WnMAVimw7sNUszt0hxYgKweAau0JatWgbZdJ8SZHSCADg4drR7wBhj8rczO0PyP88cGDAnGOrCrNwRtflR4cxDHxEIbjh8bpqI74DgWBFFWpPKiNEO5wf5YaMPxvQQCVi93YhgIWP3ci9CURAGWDi5TWc8BWKbDuwlStv8pgFVjLixbektC1qkDT4aWyezHYejFhCHzP4aFfAHDgNI0Dnpc6FBTA+AKQ3Qh1ijAT+pQHmDrwJf+OOg6Y16hn4rugCvffVX3GPCTOpSHsoHhZBWXawk/wR4CAauHu/ByGghY/dyL0JQEA9YUHdwBgTkAS3dwx7oLUPR9T/3TxStmcfdZsGrNhaWn01wv8XYhyk+r4HNqj+kwYd1ydcboQE0LWEi+Q+EK1i28UZgjALRCYC4VsqageyhcwbqVy88OoOWCK7WvB8giYOWoaYxjrgoEA9aUPvCsW9daApY0B5YXsD51bjDAmWCU839uyMILEi0COlDVYUnLFItTiThDhgUBRLkDwA4A5QOt2DcMS2hUIs6QYcGUMuK7T8iLD0BRXlu/YUjA8t1J7qcCdgWCAWuKbxC2tmD97obLoi1YtefCckFZTshqBVguawEsUanBFW+sL5Zk+jeBp/QM7LnT4NKnF91D/OpKz8DeQxpcdYCA5VKH+6iAWwEC1sbVw6mNq4eTG94y6EOBpmN7ykzu0hxYPgtWT4AF+MoFWa3eJHRZKEL8rmzVB8OAkkVMbYOFIiQAnEyYMv+n+lqFXF8/xgdZ8NuCxSsk9K47wEndK9syZug4RBPbMT7IwrBzaHmyXSN1OwErVTmeRwWGIRiwpvaJHDVMmDpEaDq2p8zkngRYH3xNF0OEumUrB2S1ACwfBKX4SumNhuvtsBB4w1t/Pqf2EsOCeh7Mdd+bhoAwX+hdd6TP5UcH4CoxLOjSzVWWkB5AWItAwGqhOq+5KAoQsCwWLN2aZa7r8OFa333tVfFDhI0mG3XlA/vGQtbBDWuq1xk4JdusE7HDeFLiXcNgIb4zPifzHNMkSOl2bQuBPp9FrXfdXfcN5aXFNAkh0FfLoqaXj9aAZT6A4H+pINVHX1mX0oI6hLikhxVsS31okizM0vXHbsNLNEijdD1lXcd+/EIt2jFpkq5rO1+lVdIaaUV5UWm1xVFyOwGrIGBhOFD6uebBajWbuw+wckBWyYIsxe2akTsEgKQ49W2u+H0WBzTCrqkSsA/HtAjoVFRDKi19bxW6dGmtO0DGNVVC6lugOe4TAMr2QIDtLd4qJGDFfdUAL4NIdUbaho4/JsSAR0y8OFZBoatNkvKAbXhBJzYvrvSF5BPl0oRvW/r07QCxXG9hu/Kg9gUDlhpym9oydYjQtFrp/0NgBMdIcOXzwWo5m3tIvsZYslShq7V0WSpyDAG5OkRfZ4gGSa/45joakJZBauT0NLqeXHvW3ZU2QEzI0G7J++Lzx6rti0XACgMs1IeUDh9wEvogJdXJHGXR1xbp9d61DjjL0W658gk4Cnnj2pVO7MM1QnUfozEBK8CCZTq8h4DIb29980ICFvKeClljCmrKua7ONAdguSw1vmEmV2OMfa0DOgxXI+WatqFn3V2+V2Pebsx1vwBQLitWDgtgTFoJWH7ASoUrVb9CIcsFHjH3VB0LWHG1Qyp9sUvkx/UApq5vW9ry6bOsx6YTeS9tzSJgBQCW6fAeAli2WdynbsFSeU+BLFuFKrUdFiZ09tIvhz+LCyRcQ4So1K7GIKe5fYy2Nr8GpB1Pq7bQq+4u3zBADe5nD8Hl8I4hzJqBgOUHLNs8cqjHupUE9V6CB9QnbPcF6VzfObb90n3V2yTlKyaBEvKBvNnyreJJ8V9DeqV84pq24UscL7WZatjT144h7lKBgBUAWPrwINYVZLiWYwCr9edyXPnS98VCVqlC3CpeV0fo6qx9fhp6o9wqb7iubwqJkg2TK9+pusP647IOwT+rh+CbQiLXjPIheZU64hAYCIk75BjTwlLSuotOWsGBWvogQbKqAARcdUPSFNeTYEbXSAIPfX/oupRPlV+0TTHtD9IspUvFh7zGBik+sxwgfhwXmlak0wZaiDs0nti8ELB6BKybzguCOB12Wq3HQNZLJ47Els9uj/cN5bgmqHT5EPgcyGsKgkbH9tSIBk56aiydvjG6u+bm8vnMlc6XHr/PEd8F73o8OdYlGEDHViuYHWtvgCVZcXxQBu2khyzXsDvOkcAj9j5I9xN1GW2SCwp918G5tnYtdpJkKZ8K2LBEmxSisZRm20Mj4KtEIGAVAizbZ3JChgh7+B5hDLCFQlaJAtwqTp8zsssaojcW5noLaHFpaHvqQ7pLNUqu9IzR3WW9qgktrvypfS4rHfbVClKHTMB6WX08gJj1N7ROSOf64FECj5hyAAgy05u7HkvAiWvEwJuUT5VuwJXP0ufTRLI6Iv5YEPRdB/sJWBbAMh3bY2dynxNgAcZCICukQE7hGJ8vj8saYmvkVAMS0xDV0Mo1nIAn1pphjO6+c2sOu4VoBuCzAWGOOdxC0oBjCFh2HyypLsc8IEkWH9dQlQQeofcR8ZrWQLQ5oUAYeh0cJz2U+eBRj1/Kp2ofc0GQ1K6VaM8IWBbAMh3bY2dynxtghUCWXommug7LlOtNNHSKLgd6m4laNSC96dJLesfq7vNr6k33XtJLwLIDllQ3oFdokEDCZZ2Rjg+9ljQkWQIoVHokeAyFTymfaB+xPWeQrG2pQ4+2dBGwLIBlOrbr/0OGz8YAVm/fIwzJrzrGZcmyFcIpbYd1ymZZwHaX9Qr5lDosBVcxT3m1NLOZ01WaXU/cOdM4VnfXlBo9TM9gagVId5Uz1xC0GdeY/67yqsrA2KUrfabVpWQdkawarg5X0iYUIlx5tu2TwMN2rL4d0CbdIxfM6eenrEvXxPBeSHsh5RPpz23dlwDZ5wcXq0UwYB3eeN0wtUlGkd5WE43OFbBclqzYwtnb8T7/H3SIvokgpUZcNX4lnyhTtZQaSpVeLEs20irNOXTvZchN5cm39Dnz+8qZL/7Q/RJE6Pc/x7orLT0DlvTwUWLITekjgYfa51pK55UEQZUWqa0Lua6U3lJto/kSD/7nDMGANbePPesWK3NdWWtcyzkDlgRZLb5FmLOihHTyIY7SUqOjOqme3iBU2rUGrFy6uwDLZ3VUWtRcErBeVrtnwII1RtVdfZnb0qLKnQQeap9tiTRKEBFiSbLFGbrddm3f+VI+c1uWVBokf7GcD40ErIAhQtPh3QVWat/cAcuELAD6VENIJx/6ZpcLsEo9pY3RvSVg5dTdBVg1ncZD7wUB62WlegYspFDyNQJshVhqQsuCOk4CD7XPtqwxDGa7NrZLvl9IkytI+fSd44rPtU9qj3NeKxiwjm++Y7ZDhKbDu4Io15KAdcHpubyUT9ZUASukk4/poF1DLiX9S1yNjGuf9KaU/rRe6kk4t+5T88HyvfXY0gcLHWCt0DtgueozLEc5QUsCD999kACnlIVNSovUfvisUVI+S6VZAtCc9ywcsJbumS1gcYjwZVhyAaVrHyDrwC/+Vap/XW/zzfwNnys4SMf4w0gVWgeW3gRpkd4SuvfyVl7o/e0lvRJAELCW30VpmEmv01gHVIyFBAk8lqdk5T/Twpbbx2jlFVduMYcofZZ6KZ+lHuQkAGwCWCd2bSJg3ffKAbDlggm1jxas5VC26ycfX1nzOt7iGlJSb3fFwhWyK1VovTEe2wjnllR6Albp9TWUKWkppbvPItTbPFguyIyxmKbcA/0cApZ9mgZdpxDIQr1BnUntwCXw0NMgrau6qpYlnfCl62ObOR2CD/JS8mm7tm+75ALhs7D54tT3B1uwTu7ZTMAiYAXBpYJMfXlw8916uet6PaSTx0d3YyxXeobNJzrV+GGZ2vjq8edcN5+A9bTmbqxL6457puDYXOLaPQVAlJlG9T/U3y9HfghYYYAFrSWt9Pqir6MNiK3rseBRGh5Cy5eUbpdFSjo+9Fqxx0ka4fq5QjBg4YJzmqbBdGyvOpP79ecmg4wONT2tH3364Vxltmg8oZ38GItHTWgZIxYaQb1TMNdjOwhXWmro3gu0uHTAPvhXKZiSljVhUIKGnB2QT4vefbDM9KPOuKy+Zh1C/lxzbenxx4KHZC3PWWf1tLnWpXQDbGxBOt527NjtXQHWoQfXTg6yUufBMh3bOZP78iG/WHgbWxFqnF+jk0c+0MiZDa3+3/V0V0MHdQ2pc9XTmWs4s5buvuvUchxX+tqWLod8ANcYuLdd07ZdKgMELJtay7ejnpuAqNcffT0EfGLBQ5qnK+Q6y3Mx/p+UbgKWoOvRR9fNBrBMx3b9fwhcjPHBmtrHnn16PP7NC4XS1NcmX+eLjg1DTDk6N+nJMraxraGey9KGjiNHqKk77p1kEVLbkJYegsvSVnvWeQJW+BChreygvkuQodd5rPvgR4rDdk1sl6wzvmu44kvdJ6Xb9RApHZ96bd95kka4fq4QNUR4fIJvEqZasHSgMtd9QIH9T9x84fDch68WfzuvuWLYuuoc62/RAGv7/Wtyldci8YR08rktBzXgZYxY0tOv3iHkaKhb6N4TvEj3x/eJnNoQSMAaD1jqPocMH+a07OB6ep3Fem6/SZU319Js63p3cm8GWFN0dG8FWI9/fpUIV4AuH2D95svnL5QP1t5HbnHVv6b7fMMxyrrh+oBzSgakjktvDLG/ZTDf/NHThnVXRxCS7la6+66L/S2D75uLqS9WpOZJKqc5OyBfusxymMtyKl1X8p0K9Y+S4rNtQ92xvXXo0hb7zHpou4babr5QA9ipHWLTkJLP1Dx1ZcF66cSRWQ4Rmg7vIRasrV/6q3TAum2cv1NI+moe06uDu6+zLQVXqjFw+WegUXKZ0VUcJZa+ua9cnUBIelrrjmE2dW/NJYaBW/li+ea+wuSrtUNvgAXAKBUk6CkBWCr9EtC5rDsp4CHlqWa7IrlD+KZBSMmn0jR22RVgIfFT++hzDguW6fAeCidJQ4SXvWqhrFdbbn9DbJmvcnzrTh6ZlDov/Qm1hTkfja/5xKmnCetjrFc96O5LQ81pEFRhB9S5ppEACNa2XtnK6FjAVnkOWUqd7Zjy57qmOZSFsl4SsJAW6SHL9vKIpIUrP9iHoXyz/uYY3vddV+2XIBIPcK6Qkk9XfK593QHW1D6ZkwOwUnywAGE7//59ohXLNUS4tPrVCwVYPfpf+TpYZdWARaF0kBpYvUGs2Rgir+aQjJ4WrPuePl169aS7y4qF+1/b18k3NIiJR1sE6SGgJmBJgODroFN0kvyVUN5LA1YMgKSAh5SvksOsuvbSw5rLQqfOTcmnOjd22R1gTc0PqyVgPfMPV8QD1sdet1CA1Zv/VWgnj+NqBMmEbkJN6UZe5VNq2PS0oGFGo5kSetPd90YhICu3351NN993FwGDrYYtWwOWNFw9BvJt90DKpwuwUG8Bf/rPZnmyXRPbpetimxSk+ikdZ26TzrNdwzx3zH8JjkPunZTeMelwndsdYCGxBzesmYwvVkvAsk3V4LJgbfnMeQsFWCf3P+kq31X39dbJq8xLT7E62GC9xFO7uj6WUqNmpiGlA0Hcveru+hxNLSumD66QjhxTg+j3OmZdAgCUlVqhlgXGZrm1PdxIuqRAS0w8Uh0NuQ8SRJT28cQ1JVcDbPeF1Hz64pX2S9rkLN9R0zSoBE5pPqxUwDId22NncscQoe1NQhdgLdIbhD3Nf+VzIFYdai3LlapLamlr4HXIwRNh7oAGpuS1e9fdNzSHclFiuBD+VK2uHVOGJADI2QGFpEVy1LaBT0h85jGSlUzVO9t1pHNCrDPmtSV9bQ9TY8BDOrekj6fkzxbafklpNXXL9b9LwHph+0MLb8EyHdtjZ3JXjvC7r71qxTChDbCWrlws/6vdD9+Yqx6Misc3t5CCqxIdaWjC8aQuNUqqoVdLwFCqJclMCxp36SlTXUstUzoOXGsKumPozTU3liobgKFcliRAvM+hHddt5XellxMJAGoDlpSGXNMNoN65/CBtgIU6qOqHWqakSbJe2+r3GPCw5bPEvZTSGeP3JZ2vl8mc610CFqZrmMowYaoFy3Rs1/8reApZ7vj0O4MBa8uCfYPw+ed+nbMuJMU1hU5eZSwUstCg4+nT1vir+GxLPEm6OhXVYWCZ2gBPSfdQyAL04A1D5C0lAOB9zvUK6FpMySDlSYKb1DIhxR+6TSqvqeCvX9P3UOOqY1Ka0GHHBDMOlxP4WPCQoFC1JTFpdh0rWRtxDRs0SnGNzacUp21bl4CFxB577IuTsGK1BixpmNBmwfrNFxZngtFtd19iK9PVtmMYRnVYtZeweKSEGMhSIARgws/WuKOTwH5b46fiMZc4JyVMUfcYyFJlCcCEn236BIAY9gPK1DkhS5zTS+gFsKQhOZTX1DIq1TMTdhC/C7BwbbPOxAy7See74DUHeEj3E3kAaMZAkFk+0fbYYNU25GnGof7nyKeKy7fsFrBO7NpEwAqcEPTZj65eZsWSAGvpQ69dKOf2Ht4eDLWihHR6scekApZqEGJhyGzox/6PbRRVurGcsu6xMBRbLnzH15gaRL9XvnWpQ3ZBgC++Mful4TSUc9QV28OFdD2UbWloXII4F2AB0qR4Qixrkq7IiysfucBDAjvVXiDtyFdowLG2+4I4kc/YkCufIdftFrCQ+EMPru0esnJYsEyH95ChQf0Y04olAdYiWa8wueipI8+GlO+ix0y5o4cwto5ANYYllvDxcjXyITds6roDckJ8pHywFLMfQG6zhIVoXuoYCQRaARby6HohA6AFeJAAAdYZ7LNZWbBP6mxdgIX0SPqgXuI6iNMM2GbLgw/McoKHBJN6e6K0lNoCbEM+fA+BuEZKyJlP3/Wle56zfCe9RagSPYWPP+cALNPhXYen0PX1V5+dE8sErK++bbGmZuhlctGpd/SoZ+gspAZHbwxzrONJPOVpU2xIO/UAAAjWSURBVLUF+nIRdMeQYcgUCjEQJR0LkGv15qp+z2zrEkDk7IBs13Vtz10fVH6kztYHWEgnYGNsHQR0+YKUb985rv2AThtwjskP4pTAzJUWfV/ufOpxm+vSPVflwTw25f8owJrCtwlzAJbu4I71UKjSj7vmHW8e/mP1e08PFeqA9bU3nDu8+5I3JsWpx9/Teg/O7agMi9DRq0qNxlBqeMY0hDgXYCU9aavrpiwXSXe8OVgCtABWPfla2e5zj4CFtOay7uoPFVJnGwJYSM8YyAqBK1xDqv+2+xazfUza9fYn10NaqXxKmkj3vBvAQoJ7d3bvBbAAUX96zpuGmy+9fPjf1ZcPP33ja4aPnHfB6W2LBFg9OLerirRIHb3KEyxaaBAlh1y9sfOtw7yvdy4q/hzLRdQdFi0AUehbgJK1Ctvg49Wzxcq8/70Clkpnal3AcJxpZZE621DAQnpwbIxFKBZISoMHtESafG2HuR9tEc7NFUrnU0+ndM+7AqwXj+7u2g+rF8C6/oN/edpSdecdXx30H+AK+3qyQI1Jy6EtaePueqHnergCaNjw8/lDqONS/SLCUzSPIwFb+Pmc4tVxvTmvL9pdUj5WNodrZanNCQI2DQFauI70EKRgpOd66NMSgAWdkUcTUm2azHX7qCFCJVrPVqxUwDId21NmcjdBZevd7xr279u37GceM+X/PVmvVNnkkgpQASpABahACwWyAFbPVqxUwDId21NncteB6amf3rgMrgBbT/7oE7RetSj5vCYVoAJUgApQgYIKZAEspK9XK1YqYJmO7fp/HZpi1vc+s7QCsHZv/a+FACxarwrWUkZNBagAFaACk1MgG2D1asXqBbCeefTfVsCVGi7c8d9fnjxk0fdqcnWfCaYCVIAKUIGCCmQDLKSxx3mxegAsaWhQwZVa4pgYa1hPx26/930FiyijpgJUgApQASowPQWyAlaPH4FuCVhL33jrsPOx71gtVwqu1BJWrp7AKSQtmLW9l3mvplf9mGIqQAWoABVYVAWyAhZEemH7Q11N2xACWLvvfetpsFm6/fzh8Lf+ZND9raT1EPDAG4OSzxVgCttd+3BuyDV6OGbXTz6+qHWD+aICVIAKUAEqkKxAdsBCSo78/IZuIMsHWIceuGwZzDz+9fOyABasV/t27xCtV/C5wk9ZrvQlwKsHcApJw+PfvDC54PFEKkAFqAAVoAKLrEARwILD+8ENa7qALB9gHfjhpcuABlYsyWqlbwuBDxxjgygXYP3u4ZuXpSf0Wi2OO/LEjxe5bjBvVIAKUAEqQAWSFSgCWEjN89vWTwKwTvzsvcNTd579FuAf/v3PswGWNLEorFU2wILFC5avFrAUe00ODSbXOZ5IBagAFaACM1CgGGBBux6GCn0WrFMbVw/4Hf7+G4P8r2DJioERycndBlhTcXLn0OAMWgZmkQpQASpABUYpUBSwenirMBSwTm54i9dypYYJYwDr8W9fvcLXygZYU3Bux1uDR59+eFSh48lUgApQASpABRZdgaKABfFO7tncdKiwNWABxjBbu+7ILgEWLF0x4Nbq2L2P3LLodYL5owJUgApQASowWoHigIUUtpyAtAfAeuJ7a72ABUtXK2gKve72+9eMLnCMgApQASpABajAHBSoAlgQ8uij65pYsnoALACMPu+VacGawvcI6Xc1h+aAeaQCVIAKUIFcClQDLPhjHd54XXXI2v+9i4djP75oOPLARcPhH77N+jv03fOHg/f8WdAv1OKjH6d/LscELFi49GN7W//tN940nDrybK4yx3ioABWgAlSACiy8AtUAC0q2cnp/+q5VXQCMsmLpgNX7xKJ0al/4NoAZpAJUgApQgQIKVAUspP/UgSebTELaA2QBrMx5sHr+yDPhqkCNY5RUgApQASowCwWqAxZUnStkqc/nKAsWJhbtbThQTw/fGJxFG8BMUgEqQAWoQAEFmgAW8jFXyMJ0DAqwsNSBpqd1wlWB2sYoqQAVoAJUYDYKNAMsKDxHyMJkogArfHOw18/iEK5mU/+ZUSpABagAFSikQFPAQp7mCFk9War0tMDninBVqKYxWipABagAFZiVAs0BC2oTsi5oPlRIh/ZZ1XtmlgpQASpABQor0AVgIY+t5snq4e1C3YrUYh3zXPH7goVrGqOnAlSAClCBWSnQDWBBdUBWixnf5wxZmKGdk4jOqs4zs1SAClABKlBBga4AS+W3xbcL5whZ/LagKnFcUgEqQAWoABXIq0CXgIUsnti1qfqEpHOBLDqz561EjI0KUAEqQAWogKlAt4CFhL54dPdw5Oc3VP1+4aJDFoYE6W9lVgP+pwJUgApQASqQV4GuAUtltfaQ4aJC1q6ffFxJyiUVoAJUgApQASpQUIFJABbyj6kcalqzFgmyYLU6tOW+gsWIUVMBKkAFqAAVoAK6ApMBLJXo57etr+abNXXIgq8VrVaq5HBJBagAFaACVKCeApMDLEiD6RyOPfbFKr5ZU4Wsp751xfD8c7+uV5J4JSpABagAFaACVOCMApMELJX6Wk7wU4KsbXdfwuFAVUC4pAJUgApQASrQSIFJA5bS7OSezcX9s3qHLIKVKg1cUgEqQAWoABVor8BCAJaSEaBVcuiwR8giWKm7zyUVoAJUgApQgX4UWCjAUrJi6PD45juKOMP3AFlwXscs7PSxUnecSypABagAFaACfSmwkIClS/zC9oeyf9+wFWTBWrX3kVv47UD9BnOdClABKkAFqECHCiw8YCnN8eYhpnjINZdWLcjCHFa7H76R1ip1I7mkAlSAClABKjABBWYDWPq9AGzBsgV/rUMPrk2e7qEEZKnhP1iqOASo3zWuUwEqQAWoABWYjgKzBCzz9sBnC8AFv61YC9dYyIKFCv5UACp+I9C8M/xPBagAFaACVGCaChCwLPcNn+bBW4n4DiJ+AC/8Dm5Ys8Li5YIsWKTgO4XfMz/8m9Mzq+9/7OuEKYvu3EwFqAAVoAJUYBEUIGAtwl1kHqgAFaACVIAKUIGuFPg/fHgJay9orOYAAAAASUVORK5CYII=;" vertex="1" parent="1">
          <mxGeometry x="297.37" y="213.23000000000002" width="233.27" height="56.77" as="geometry" />
        </mxCell>
      </root>
    </mxGraphModel>
  </diagram>
</mxfile>
